<?xml version="1.0" standalone="no"?>
<!DOCTYPE svg PUBLIC "-//W3C//DTD SVG 20010904//EN"
 "http://www.w3.org/TR/2001/REC-SVG-20010904/DTD/svg10.dtd">
<svg version="1.0" xmlns="http://www.w3.org/2000/svg"
 width="500.000000pt" height="500.000000pt" viewBox="0 0 500.000000 500.000000"
 preserveAspectRatio="xMidYMid meet">

<g transform="translate(0.000000,500.000000) scale(0.100000,-0.100000)"
fill="#B5838D" stroke="none">
<path d="M2331 3750 c-317 -44 -582 -279 -673 -596 -18 -64 -22 -104 -22 -209
0 -146 14 -213 70 -333 232 -504 884 -633 1286 -254 82 78 127 137 172 228
142 287 106 616 -94 869 -107 135 -291 249 -455 283 -76 16 -213 22 -284 12z
m-177 -567 c2 -10 15 -85 27 -166 22 -145 31 -162 42 -82 3 22 13 91 22 153
l17 112 64 0 64 0 0 -270 0 -270 -45 0 -44 0 -3 148 -3 147 -18 -125 c-26
-181 -22 -170 -72 -170 l-43 0 -11 68 c-7 37 -18 101 -25 142 l-14 75 -1 -142
-1 -143 -40 0 -40 0 0 270 0 270 59 0 c48 0 61 -3 65 -17z m481 -5 c2 -13 21
-124 40 -248 19 -124 37 -235 40 -247 5 -22 2 -23 -45 -23 -45 0 -50 2 -50 23
0 57 -9 67 -61 67 -44 0 -49 -2 -49 -22 0 -56 -10 -68 -54 -68 l-42 0 37 238
c21 130 41 252 44 270 l6 32 64 0 c59 0 65 -2 70 -22z m215 -248 l0 -270 -45
0 -45 0 0 270 0 270 45 0 45 0 0 -270z"/>
<path d="M2557 3030 c-8 -31 -27 -163 -27 -184 0 -12 10 -16 35 -16 32 0 34 2
29 28 -3 15 -11 65 -18 112 -9 61 -15 78 -19 60z"/>
<path d="M2232 1858 l2 -63 3 58 4 57 39 0 39 0 4 -57 3 -58 2 63 2 62 -50 0
-50 0 2 -62z"/>
<path d="M3152 1858 l2 -63 3 58 4 57 39 0 39 0 4 -57 3 -58 2 63 2 62 -50 0
-50 0 2 -62z"/>
<path d="M1760 1860 l0 -50 155 0 155 0 0 50 0 50 -155 0 -155 0 0 -50z m98 3
c3 -20 -1 -23 -32 -23 -28 0 -36 4 -36 18 0 26 10 33 40 30 17 -2 26 -10 28
-25z m90 0 c3 -20 -1 -23 -32 -23 -28 0 -36 4 -36 18 0 26 10 33 40 30 17 -2
26 -10 28 -25z m92 2 c0 -22 -4 -25 -35 -25 -27 0 -35 4 -35 18 0 25 9 32 42
32 23 0 28 -4 28 -25z"/>
<path d="M2700 1860 l0 -50 155 0 155 0 0 50 0 50 -155 0 -155 0 0 -50z m98 3
c3 -20 -1 -23 -32 -23 -28 0 -36 4 -36 18 0 26 10 33 40 30 17 -2 26 -10 28
-25z m90 0 c3 -20 -1 -23 -32 -23 -28 0 -36 4 -36 18 0 26 10 33 40 30 17 -2
26 -10 28 -25z m90 0 c3 -20 -1 -23 -32 -23 -28 0 -36 4 -36 18 0 26 10 33 40
30 17 -2 26 -10 28 -25z"/>
<path d="M1780 1700 l0 -90 135 0 135 0 0 90 0 90 -135 0 -135 0 0 -90z m240
55 c0 -12 -18 -15 -105 -15 -87 0 -105 3 -105 15 0 12 18 15 105 15 87 0 105
-3 105 -15z m0 -50 c0 -12 -18 -15 -105 -15 -87 0 -105 3 -105 15 0 12 18 15
105 15 87 0 105 -3 105 -15z m0 -50 c0 -12 -18 -15 -105 -15 -87 0 -105 3
-105 15 0 12 18 15 105 15 87 0 105 -3 105 -15z"/>
<path d="M2720 1700 l0 -90 135 0 135 0 0 90 0 90 -135 0 -135 0 0 -90z m240
55 c0 -12 -18 -15 -105 -15 -87 0 -105 3 -105 15 0 12 18 15 105 15 87 0 105
-3 105 -15z m0 -50 c0 -12 -18 -15 -105 -15 -87 0 -105 3 -105 15 0 12 18 15
105 15 87 0 105 -3 105 -15z m0 -50 c0 -12 -18 -15 -105 -15 -87 0 -105 3
-105 15 0 12 18 15 105 15 87 0 105 -3 105 -15z"/>
<path d="M2232 1676 c7 -8 15 -10 18 -6 3 5 26 10 50 13 38 3 35 4 -18 5 -53
2 -61 0 -50 -12z"/>
<path d="M3152 1676 c7 -8 15 -10 18 -6 3 5 26 10 50 13 38 3 35 4 -18 5 -53
2 -61 0 -50 -12z"/>
<path d="M2281 1663 c0 -6 -4 -20 -7 -30 -5 -14 -4 -15 5 -7 7 7 11 20 8 30
-3 11 -5 14 -6 7z"/>
<path d="M3201 1663 c0 -6 -4 -20 -7 -30 -5 -14 -4 -15 5 -7 7 7 11 20 8 30
-3 11 -5 14 -6 7z"/>
<path d="M2322 1610 c0 -14 2 -19 5 -12 2 6 2 18 0 25 -3 6 -5 1 -5 -13z"/>
<path d="M3242 1610 c0 -14 2 -19 5 -12 2 6 2 18 0 25 -3 6 -5 1 -5 -13z"/>
<path d="M2255 1599 c-4 -6 -5 -12 -2 -15 2 -3 7 2 10 11 7 17 1 20 -8 4z"/>
<path d="M3175 1599 c-4 -6 -5 -12 -2 -15 2 -3 7 2 10 11 7 17 1 20 -8 4z"/>
<path d="M1796 1586 c-36 -11 -62 -36 -38 -36 21 0 112 34 112 42 0 11 -26 9
-74 -6z"/>
<path d="M1960 1592 c0 -4 27 -14 60 -23 45 -12 60 -13 60 -4 0 7 -20 18 -44
24 -53 13 -76 14 -76 3z"/>
<path d="M2736 1586 c-36 -11 -62 -36 -38 -36 21 0 112 34 112 42 0 11 -26 9
-74 -6z"/>
<path d="M2900 1592 c0 -4 27 -14 60 -23 45 -12 60 -13 60 -4 0 7 -20 18 -44
24 -53 13 -76 14 -76 3z"/>
</g>
</svg>
