<?xml version="1.0" standalone="no"?>
<!DOCTYPE svg PUBLIC "-//W3C//DTD SVG 20010904//EN"
 "http://www.w3.org/TR/2001/REC-SVG-20010904/DTD/svg10.dtd">
<svg version="1.0" xmlns="http://www.w3.org/2000/svg"
 width="226.000000pt" height="196.000000pt" viewBox="0 0 226.000000 196.000000"
 preserveAspectRatio="xMidYMid meet">

<g transform="translate(0.000000,196.000000) scale(0.100000,-0.100000)"
fill="#B5838D" stroke="none">
<path d="M1041 1730 c-317 -44 -582 -279 -673 -596 -18 -64 -22 -104 -22 -209
0 -146 14 -213 70 -333 232 -504 884 -633 1286 -254 82 78 127 137 172 228
142 287 106 616 -94 869 -107 135 -291 249 -455 283 -76 16 -213 22 -284 12z
m-177 -567 c2 -10 15 -85 27 -166 22 -145 31 -162 42 -82 3 22 13 91 22 153
l17 112 64 0 64 0 0 -270 0 -270 -45 0 -44 0 -3 148 -3 147 -18 -125 c-26
-181 -22 -170 -72 -170 l-43 0 -11 68 c-7 37 -18 101 -25 142 l-14 75 -1 -142
-1 -143 -40 0 -40 0 0 270 0 270 59 0 c48 0 61 -3 65 -17z m481 -5 c2 -13 21
-124 40 -248 19 -124 37 -235 40 -247 5 -22 2 -23 -45 -23 -45 0 -50 2 -50 23
0 57 -9 67 -61 67 -44 0 -49 -2 -49 -22 0 -56 -10 -68 -54 -68 l-42 0 37 238
c21 130 41 252 44 270 l6 32 64 0 c59 0 65 -2 70 -22z m215 -248 l0 -270 -45
0 -45 0 0 270 0 270 45 0 45 0 0 -270z"/>
<path d="M1267 1010 c-8 -31 -27 -163 -27 -184 0 -12 10 -16 35 -16 32 0 34 2
29 28 -3 15 -11 65 -18 112 -9 61 -15 78 -19 60z"/>
</g>
</svg>
